<svg width="404" height="167" viewBox="0 0 404 167" fill="none" xmlns="http://www.w3.org/2000/svg">
<g clip-path="url(#clip0_520_1057)">
<rect width="404" height="167" fill="white"/>
<path d="M33.5 -33H0V30L33.5 -6V-33Z" fill="#8FA3B4"/>
<path d="M308.019 -34H241.119C226.386 -22.1801 237.536 29.9905 247.491 43.4408C255.455 54.2009 302.842 55.5324 325.54 54.8531C364.086 1.70427 329.92 -26.5276 308.019 -34Z" fill="#F4B4B7"/>
<path d="M404 146V58H307C372.439 69.5345 398.933 121.473 404 146Z" fill="#8FA3B4"/>
<path d="M281 -33H404V38C404 -4.70071 322 -27.1253 281 -33Z" fill="#B76E22"/>
<path d="M404 -33.6427H329.417C322.604 -37.943 280.292 -2.8787 281.009 41.7787C281.726 86.436 363.123 98.0139 383.203 94.3751C399.267 91.4641 403.761 86.5463 404 84.4513V-33.6427Z" fill="#81B6E8"/>
</g>
<defs>
<clipPath id="clip0_520_1057">
<rect width="404" height="167" fill="white"/>
</clipPath>
</defs>
</svg>
